REM DIRINDEX 1\2,1\3,1\4,1\5
REM DIRNAME folder01,folder02,folder03,folder04,folder05
TITLE ""
FILE "088.mp3" MP3
  TRACK 01 AUDIO
    TITLE "0:"
    INDEX 01 00:00:00
  TRACK 02 AUDIO
    TITLE "2:cjc046_1817"
    INDEX 01 00:00:15
  TRACK 03 AUDIO
    TITLE "0:"
    INDEX 01 00:01:24
  TRACK 04 AUDIO
    TITLE "3:cjc046_1818"
    INDEX 01 00:01:52
  TRACK 05 AUDIO
    TITLE "0:"
    INDEX 01 00:03:59
  TRACK 06 AUDIO
    TITLE "4:cjc046_1819"
    INDEX 01 00:03:72
  TRACK 07 AUDIO
    TITLE "0:"
    INDEX 01 00:05:05
  TRACK 08 AUDIO
    TITLE "2:cjc046_1820"
    INDEX 01 00:06:16
  TRACK 09 AUDIO
    TITLE "0:"
    INDEX 01 00:07:21
  TRACK 10 AUDIO
    TITLE "3:cjc046_1821"
    INDEX 01 00:07:45
  TRACK 11 AUDIO
    TITLE "0:"
    INDEX 01 00:08:52
  TRACK 12 AUDIO
    TITLE "4:cjc046_1822"
    INDEX 01 00:08:68
  TRACK 13 AUDIO
    TITLE "0:"
    INDEX 01 00:09:73
  TRACK 14 AUDIO
    TITLE "2:cjc046_1823"
    INDEX 01 00:11:07
  TRACK 15 AUDIO
    TITLE "0:"
    INDEX 01 00:12:03
  TRACK 16 AUDIO
    TITLE "3:cjc046_1824"
    INDEX 01 00:12:32
  TRACK 17 AUDIO
    TITLE "0:"
    INDEX 01 00:14:29
  TRACK 18 AUDIO
    TITLE "4:cjc046_1825"
    INDEX 01 00:14:41
  TRACK 19 AUDIO
    TITLE "0:"
    INDEX 01 00:15:40
  TRACK 20 AUDIO
    TITLE "2:cjc046_1826"
    INDEX 01 00:16:49
  TRACK 21 AUDIO
    TITLE "0:"
    INDEX 01 00:17:63
  TRACK 22 AUDIO
    TITLE "3:cjc046_1827"
    INDEX 01 00:18:09
  TRACK 23 AUDIO
    TITLE "0:"
    INDEX 01 00:19:32
  TRACK 24 AUDIO
    TITLE "4:cjc046_1828"
    INDEX 01 00:19:46
  TRACK 25 AUDIO
    TITLE "0:"
    INDEX 01 00:20:59
  TRACK 26 AUDIO
    TITLE "2:cjc046_1829"
    INDEX 01 00:21:62
  TRACK 27 AUDIO
    TITLE "0:"
    INDEX 01 00:22:66
  TRACK 28 AUDIO
    TITLE "3:cjc046_1830"
    INDEX 01 00:23:18
  TRACK 29 AUDIO
    TITLE "0:"
    INDEX 01 00:24:25
  TRACK 30 AUDIO
    TITLE "4:cjc046_1831"
    INDEX 01 00:24:39
  TRACK 31 AUDIO
    TITLE "0:"
    INDEX 01 00:25:41
  TRACK 32 AUDIO
    TITLE "2:cjc046_1832"
    INDEX 01 00:26:48
  TRACK 33 AUDIO
    TITLE "0:"
    INDEX 01 00:27:53
  TRACK 34 AUDIO
    TITLE "3:cjc046_1833"
    INDEX 01 00:28:02
  TRACK 35 AUDIO
    TITLE "0:"
    INDEX 01 00:30:14
  TRACK 36 AUDIO
    TITLE "4:cjc046_1834"
    INDEX 01 00:30:24
  TRACK 37 AUDIO
    TITLE "0:"
    INDEX 01 00:31:31
  TRACK 38 AUDIO
    TITLE "2:cjc046_1835"
    INDEX 01 00:32:39
  TRACK 39 AUDIO
    TITLE "0:"
    INDEX 01 00:33:40
  TRACK 40 AUDIO
    TITLE "3:cjc046_1836"
    INDEX 01 00:33:66
  TRACK 41 AUDIO
    TITLE "0:"
    INDEX 01 00:34:73
  TRACK 42 AUDIO
    TITLE "4:cjc046_1837"
    INDEX 01 00:35:10
  TRACK 43 AUDIO
    TITLE "0:"
    INDEX 01 00:36:11
  TRACK 44 AUDIO
    TITLE "2:cjc046_1838"
    INDEX 01 00:37:20
  TRACK 45 AUDIO
    TITLE "0:"
    INDEX 01 00:38:26
  TRACK 46 AUDIO
    TITLE "3:cjc046_1839"
    INDEX 01 00:38:53
  TRACK 47 AUDIO
    TITLE "0:"
    INDEX 01 00:39:56
  TRACK 48 AUDIO
    TITLE "4:cjc046_1840"
    INDEX 01 00:39:70
  TRACK 49 AUDIO
    TITLE "0:"
    INDEX 01 00:41:02
  TRACK 50 AUDIO
    TITLE "2:cjc046_1841"
    INDEX 01 00:42:10
  TRACK 51 AUDIO
    TITLE "0:"
    INDEX 01 00:43:17
  TRACK 52 AUDIO
    TITLE "3:cjc046_1842"
    INDEX 01 00:43:39
  TRACK 53 AUDIO
    TITLE "0:"
    INDEX 01 00:44:61
  TRACK 54 AUDIO
    TITLE "4:cjc046_1843"
    INDEX 01 00:44:73
  TRACK 55 AUDIO
    TITLE "0:"
    INDEX 01 00:46:02
  TRACK 56 AUDIO
    TITLE "2:cjc046_1844"
    INDEX 01 00:47:11
  TRACK 57 AUDIO
    TITLE "0:"
    INDEX 01 00:48:16
  TRACK 58 AUDIO
    TITLE "3:cjc046_1845"
    INDEX 01 00:48:40
  TRACK 59 AUDIO
    TITLE "0:"
    INDEX 01 00:49:53
  TRACK 60 AUDIO
    TITLE "4:cjc046_1846"
    INDEX 01 00:49:67
  TRACK 61 AUDIO
    TITLE "0:"
    INDEX 01 00:50:72
